<svg xmlns="http://www.w3.org/2000/svg" xmlns:xlink="http://www.w3.org/1999/xlink" width="512" height="512" version="1.1" viewBox="0 0 512 512"><title>Icon</title><desc>Created with Sketch.</desc><defs><filter id="filter-1" width="125.1%" height="117.9%" x="-12.5%" y="-8.1%" filterUnits="objectBoundingBox"><feOffset dx="0" dy="5" in="SourceAlpha" result="shadowOffsetOuter1"/><feGaussianBlur in="shadowOffsetOuter1" result="shadowBlurOuter1" stdDeviation="5"/><feColorMatrix in="shadowBlurOuter1" result="shadowMatrixOuter1" type="matrix" values="0 0 0 0 0 0 0 0 0 0 0 0 0 0 0 0 0 0 0.5 0"/><feMerge><feMergeNode in="shadowMatrixOuter1"/><feMergeNode in="SourceGraphic"/></feMerge></filter></defs><g id="Icon" fill="none" fill-rule="evenodd" stroke="none" stroke-width="1"><rect id="Frame" width="491" height="491" x="10.5" y="10.5" fill="#D32F2F" stroke="#979797" rx="28"/><g id="stacks" filter="url(#filter-1)" transform="translate(115.000000, 75.000000)"><rect id="empty-stack-frame" width="200" height="200" x="41.421" y="121.421" fill="#D32F2F" stroke="#FFF" stroke-linecap="round" stroke-linejoin="round" stroke-width="8" rx="8" transform="translate(141.421356, 221.421356) rotate(45.000000) translate(-141.421356, -221.421356)"/><rect id="empty-stack-frame" width="200" height="200" x="41.421" y="81.421" fill="#D32F2F" stroke="#FFF" stroke-linejoin="round" stroke-width="8" rx="9" transform="translate(141.421356, 181.421356) rotate(45.000000) translate(-141.421356, -181.421356)"/><rect id="filled-stack-frame" width="192" height="192" x="45.421" y="45.421" fill="#FFF" stroke="#FFF" stroke-width="8" rx="8" transform="translate(141.421356, 141.421356) rotate(45.000000) translate(-141.421356, -141.421356)"/><g id="text" font-family="RobotoMono-Medium, Roboto Mono" font-size="12" font-weight="400" letter-spacing="1.1" transform="translate(135.000000, 241.000000)"><text id="What" fill="#D32F2F" transform="translate(18.006097, 18.403066) rotate(-45.000000) translate(-18.006097, -18.403066)"><tspan x="1.006" y="23.403">What</tspan></text><text id="The" fill="#FFF" transform="translate(30.177670, 36.970563) rotate(-45.000000) translate(-30.177670, -36.970563)"><tspan x="17.678" y="41.971">The</tspan></text><text id="Stack" fill="#FFF" transform="translate(58.127417, 53.520815) rotate(-45.000000) translate(-58.127417, -53.520815)"><tspan x="37.127" y="58.521">Stack</tspan></text></g></g></g></svg>